<?xml version="1.0" ?><svg id="Layer_1" style="enable-background:new 0 0 66 66;" version="1.1" viewBox="0 0 66 66" xml:space="preserve" xmlns="http://www.w3.org/2000/svg" fill="#000" xmlns:xlink="http://www.w3.org/1999/xlink"><g><path d="M58.06,1.51H7.94c-3.55,0-6.44,2.89-6.44,6.44v50.12c0,3.55,2.89,6.44,6.44,6.44h50.13c3.55,0,6.44-2.89,6.44-6.44V7.94   C64.5,4.39,61.61,1.51,58.06,1.51z M63.5,58.06c0,3-2.44,5.44-5.44,5.44H7.94c-3,0-5.44-2.44-5.44-5.44V7.94   c0-3,2.44-5.44,5.44-5.44h50.13c3,0,5.44,2.44,5.44,5.44V58.06z"/><path d="M27.82,7.47L10.89,7.45c-0.86,0.01-1.75,0.35-2.4,0.99C7.85,9.08,7.5,9.93,7.5,10.83L7.44,55.11c0,0.9,0.35,1.76,0.99,2.4   c0.64,0.64,1.49,0.99,2.39,0.99h16.99c1.87,0,3.38-1.52,3.38-3.38V10.86C31.2,8.99,29.68,7.47,27.82,7.47z M30.2,36.43h-3.4   c-0.5,0-0.91-0.41-0.91-0.91V24.87c0-0.5,0.41-0.91,0.91-0.91h3.4V36.43z M27.82,57.49H10.83c-0.64,0-1.24-0.25-1.69-0.7   c-0.45-0.45-0.7-1.05-0.7-1.69L8.5,10.83c0-0.64,0.25-1.24,0.7-1.69c0.45-0.45,1.05-0.7,1.68-0.7c0,0,0,0,0,0l16.93,0.02   c1.31,0,2.38,1.07,2.38,2.38v12.1h-3.4c-1.05,0-1.91,0.86-1.91,1.91v10.66c0,1.05,0.86,1.91,1.91,1.91h3.4v17.68   C30.2,56.43,29.13,57.49,27.82,57.49z"/><path d="M55.18,7.5L38.19,7.48c0,0,0,0,0,0c-0.9,0-1.75,0.35-2.39,0.99c-0.64,0.64-0.99,1.49-0.99,2.39v44.25   c0,1.87,1.52,3.38,3.38,3.38h16.93c1.86,0,3.38-1.52,3.38-3.38l0.05-44.22c0-0.9-0.35-1.75-0.99-2.39   C56.93,7.86,56.08,7.5,55.18,7.5z M35.8,23.95h3.4c0.5,0,0.91,0.41,0.91,0.91v10.66c0,0.5-0.41,0.91-0.91,0.91h-3.4V23.95z    M57.5,55.11c0,1.31-1.07,2.38-2.38,2.38H38.19c-1.32,0-2.38-1.07-2.38-2.38V37.43h3.4c1.05,0,1.91-0.86,1.91-1.91V24.87   c0-1.05-0.86-1.91-1.91-1.91h-3.4V10.86c0-0.64,0.25-1.24,0.7-1.69s1.05-0.7,1.69-0.7c0,0,0,0,0,0L55.17,8.5   c0.64,0,1.24,0.25,1.69,0.7c0.45,0.45,0.7,1.05,0.7,1.69L57.5,55.11z"/></g></svg>