<svg width="27" height="27" viewBox="0 0 27 27" fill="none" xmlns="http://www.w3.org/2000/svg">
<path d="M26.7044 0.0770099C26.5217 -0.0272869 26.2969 -0.0255291 26.1158 0.0815802L15.3783 6.43103C15.0997 6.59574 15.0075 6.95503 15.1722 7.23359C15.3368 7.51208 15.6961 7.60437 15.9747 7.43972L23.6787 2.88412L9.32879 17.7735L2.19161 15.59L11.506 10.0822C11.7845 9.91741 11.8768 9.55812 11.7121 9.27956C11.5474 9.00107 11.1881 8.90866 10.9095 9.07343L0.451788 15.2574C0.251984 15.3755 0.140714 15.6005 0.168195 15.831C0.195675 16.0616 0.356632 16.2541 0.578585 16.3221L9.10215 18.9297L12.8625 25.7742C12.8664 25.7813 12.8705 25.7873 12.8747 25.7926C12.9374 25.8973 13.0314 25.9828 13.1488 26.0321C13.2222 26.063 13.2993 26.078 13.376 26.078C13.5262 26.078 13.674 26.0203 13.7856 25.9111L18.1095 21.6853L26.2426 24.1736C26.2989 24.1907 26.3566 24.1992 26.414 24.1992C26.538 24.1992 26.6605 24.1598 26.7625 24.0843C26.9119 23.9738 27 23.799 27 23.6133V0.585955C27 0.375545 26.8872 0.181248 26.7044 0.0770099ZM12.8945 19.2908C12.8266 19.3889 12.7902 19.5052 12.7902 19.6245V23.2087L10.2225 18.535L21.585 6.74533L12.8945 19.2908ZM13.9621 24.1001V20.4165L16.8326 21.2947L13.9621 24.1001ZM25.8281 22.8213L14.3145 19.2989L25.8281 2.67798V22.8213Z" fill="black"/>
</svg>
