<svg width="29" height="30" viewBox="0 0 29 30" fill="none" xmlns="http://www.w3.org/2000/svg">
<path d="M27.3981 15.3886C27.2774 15.1416 27.2774 14.8584 27.3981 14.6115L28.517 12.3225C29.1399 11.0481 28.6463 9.52904 27.3933 8.86419L25.1427 7.67006C24.8999 7.54127 24.7334 7.31206 24.6859 7.04142L24.2458 4.53193C24.0007 3.13472 22.7082 2.19583 21.3039 2.39452L18.7813 2.75135C18.509 2.78978 18.2398 2.70225 18.0423 2.51117L16.2112 0.739789C15.1916 -0.246567 13.5944 -0.246626 12.5748 0.739789L10.7437 2.51135C10.5461 2.70248 10.2769 2.78984 10.0047 2.75152L7.48204 2.39469C6.07727 2.19589 4.7853 3.1349 4.5402 4.53211L4.10005 7.04147C4.05253 7.31217 3.88607 7.54133 3.64332 7.67018L1.39276 8.8643C0.139686 9.5291 -0.353902 11.0482 0.26906 12.3227L1.38789 14.6116C1.5086 14.8586 1.5086 15.1418 1.38789 15.3887L0.269001 17.6776C-0.35396 18.952 0.139628 20.4711 1.3927 21.1359L3.64326 22.33C3.88607 22.4588 4.05253 22.688 4.10005 22.9587L4.5402 25.4682C4.76332 26.7401 5.85398 27.6321 7.10746 27.632C7.23091 27.632 7.35618 27.6233 7.4821 27.6055L10.0047 27.2487C10.2768 27.2101 10.5462 27.2978 10.7437 27.4889L12.5748 29.2603C13.0847 29.7535 13.7387 30.0001 14.393 30C15.0471 29.9999 15.7015 29.7534 16.2111 29.2603L18.0423 27.4889C18.2398 27.2978 18.5091 27.2105 18.7813 27.2487L21.3039 27.6055C22.7089 27.8043 24.0007 26.8653 24.2458 25.4681L24.686 22.9587C24.7335 22.688 24.8999 22.4589 25.1427 22.33L27.3933 21.1359C28.6463 20.4711 29.1399 18.952 28.517 17.6775L27.3981 15.3886ZM26.5823 19.6074L24.3317 20.8015C23.6142 21.1823 23.1221 21.8595 22.9817 22.6597L22.5416 25.1691C22.4587 25.6418 22.0216 25.9594 21.5463 25.8923L19.0236 25.5354C18.2192 25.4215 17.4231 25.6804 16.8392 26.2452L15.0081 28.0165C14.6632 28.3501 14.1228 28.3501 13.7778 28.0165L11.9467 26.2451C11.4532 25.7678 10.8081 25.5091 10.1347 25.5091C10.0113 25.5091 9.88688 25.5177 9.76231 25.5354L7.2397 25.8922C6.76475 25.9594 6.32735 25.6418 6.24438 25.1691L5.80417 22.6596C5.66378 21.8594 5.17172 21.1821 4.45413 20.8015L2.20357 19.6073C1.77959 19.3824 1.6126 18.8685 1.82336 18.4373L2.94225 16.1484C3.29897 15.4185 3.29897 14.5815 2.94225 13.8516L1.82336 11.5627C1.6126 11.1315 1.77959 10.6176 2.20357 10.3926L4.45413 9.19852C5.17166 8.81772 5.66378 8.1405 5.80411 7.34036L6.24426 4.83093C6.32723 4.3582 6.76422 4.04063 7.23958 4.10778L9.76219 4.46461C10.5664 4.57846 11.3627 4.31965 11.9466 3.75487L13.7778 1.98349C14.1226 1.64986 14.663 1.64986 15.008 1.98349L16.8391 3.75487C17.423 4.31971 18.2192 4.57846 19.0235 4.46461L21.5461 4.10778C22.0212 4.04057 22.4585 4.3582 22.5415 4.83093L22.9816 7.34042C23.122 8.14056 23.6141 8.81784 24.3317 9.19852L26.5822 10.3926C27.0062 10.6176 27.1732 11.1315 26.9624 11.5627L25.8435 13.8516C25.4868 14.5813 25.4868 15.4185 25.8435 16.1483L26.9624 18.4372C27.1732 18.8685 27.0063 19.3825 26.5823 19.6074Z" fill="black"/>
</svg>
