<svg width="28" height="30" viewBox="0 0 28 30" fill="none" xmlns="http://www.w3.org/2000/svg">
<path d="M24.7287 3.5519C24.4791 2.98026 24.1387 2.446 23.7146 1.97233C22.5923 0.718888 20.9837 0 19.3013 0H7.97162C6.28921 0 4.68058 0.718888 3.55833 1.97233C3.13428 2.44594 2.79391 2.9802 2.54424 3.55184C0.969357 3.77362 -0.158106 5.21339 0.0181443 6.80474L1.47625 19.9705C1.57364 20.85 2.04848 21.6022 2.72852 22.0746L2.14821 27.9161C2.08516 28.5506 2.34256 29.17 2.83674 29.5729C3.18022 29.853 3.60315 30 4.03352 30C4.22237 30 4.41263 29.9717 4.59825 29.9139C5.15688 29.7402 5.61134 29.3088 5.8139 28.7598L8.08611 22.6022H19.1867L21.4589 28.7599C21.6615 29.3088 22.1159 29.7402 22.6745 29.9139C22.8601 29.9716 23.0505 30 23.2393 30C23.6697 30 24.0926 29.853 24.4361 29.5729C24.9303 29.17 25.1877 28.5506 25.1246 27.916L24.5443 22.0746C25.2243 21.6023 25.6992 20.85 25.7966 19.9705L27.2547 6.80474C27.431 5.21345 26.3036 3.77368 24.7287 3.5519ZM4.8679 3.14491C5.65716 2.26342 6.78837 1.75782 7.97162 1.75782H19.3013C20.4845 1.75782 21.6157 2.26336 22.405 3.14485C22.6054 3.36862 22.7789 3.61178 22.9247 3.86913C22.7651 3.95462 22.6119 4.05481 22.4676 4.17042C21.8508 4.66419 21.4633 5.36843 21.3763 6.15353L21.3403 6.47913L20.7793 11.5445H6.49364L5.93267 6.47913L5.89663 6.15359C5.80968 5.36849 5.4222 4.66413 4.8055 4.17024C4.66112 4.05458 4.5079 3.95438 4.34835 3.86889C4.49407 3.61173 4.66763 3.36862 4.8679 3.14491ZM20.5845 13.3024L20.2096 16.6878H7.06324L6.68829 13.3024H20.5845ZM4.16483 28.1513C4.15007 28.1914 4.11696 28.2228 4.07618 28.2355C4.02913 28.2502 3.98583 28.2418 3.94768 28.2107C3.90948 28.1795 3.89261 28.1389 3.89753 28.0898L4.44268 22.6023H6.2124L4.16483 28.1513ZM23.3252 28.2107C23.2871 28.2418 23.2438 28.2502 23.1966 28.2355C23.1559 28.2228 23.1228 28.1914 23.1081 28.1514L21.0604 22.6023H22.8301L23.3753 28.0898C23.3803 28.1389 23.3634 28.1795 23.3252 28.2107ZM25.5076 6.61115L24.0495 19.7771C23.9821 20.3856 23.4696 20.8444 22.8574 20.8444H4.4155C3.80331 20.8444 3.29085 20.3856 3.2234 19.7771L1.76524 6.6112C1.69246 5.9539 2.16801 5.35993 2.82608 5.28698C2.8712 5.28194 2.9162 5.27942 2.96096 5.27942C3.23143 5.27942 3.49212 5.37066 3.70663 5.54239C3.95688 5.74278 4.11409 6.02855 4.14936 6.34712L5.40263 17.6635C5.4519 18.1087 5.82819 18.4456 6.2762 18.4456H20.9964C21.4445 18.4456 21.8207 18.1087 21.87 17.6635L23.1233 6.34706C23.1586 6.02861 23.3158 5.74296 23.566 5.54269C23.8161 5.34247 24.1291 5.25189 24.4472 5.28698C24.4472 5.28698 24.4473 5.28704 24.4474 5.28704C25.1048 5.35976 25.5804 5.95384 25.5076 6.61115Z" fill="black"/>
</svg>
