<svg width="27" height="23" viewBox="0 0 27 23" fill="none" xmlns="http://www.w3.org/2000/svg">
<path d="M26.2754 7.60684L22.7597 0.575586C22.5895 0.276875 22.3506 0.0898438 21.9734 0.0898438H4.39528C4.02778 0.0898438 3.78204 0.272187 3.60896 0.575586L0.0933316 7.60684C-0.0694418 7.95254 -0.0137193 8.29994 0.216964 8.57715L12.5217 22.6982C12.6886 22.8898 12.9301 23 13.1843 23C13.4386 23 13.6801 22.8898 13.847 22.6982L26.1517 8.57715C26.3809 8.30135 26.4391 7.95436 26.2754 7.60684ZM20.5513 1.84766L18.3078 6.33477L14.9422 1.84766H20.5513ZM16.7 7.12109H9.66872L13.1843 2.43359L16.7 7.12109ZM11.4265 1.84766L8.06091 6.33477L5.81736 1.84766H11.4265ZM4.39528 2.93398L6.48884 7.12109H2.30173L4.39528 2.93398ZM2.8115 8.87891H7.33025L11.6633 19.0379L2.8115 8.87891ZM13.1843 18.1232L9.24157 8.87891H17.1271L13.1843 18.1232ZM14.7054 19.0379L19.0384 8.87891H23.5572L14.7054 19.0379ZM19.8799 7.12109L21.9734 2.93398L24.067 7.12109H19.8799Z" fill="black"/>
</svg>
