<svg width="21" height="21" viewBox="0 0 21 21" fill="none" xmlns="http://www.w3.org/2000/svg">
<path d="M19.9748 2.7416L17.2237 0L11.5104 5.70382L13.7253 7.99126C13.3541 8.65022 12.5487 9.91247 11.1761 11.285C9.80337 12.6578 8.53189 13.4724 7.86666 13.8495L5.62409 11.6355L0 17.2261L2.73606 19.9804C3.78192 21.0262 5.37328 21.2973 6.69595 20.6549C8.71432 19.6746 11.7604 17.8658 14.8104 14.8159C17.8603 11.766 19.669 8.71986 20.6493 6.70149C20.8816 6.22325 20.9945 5.70994 20.9945 5.19995C20.9945 4.29941 20.6425 3.40929 19.9748 2.7416ZM19.1747 5.98519C18.2493 7.89049 16.5399 10.768 13.6512 13.6567C10.7624 16.5455 7.88491 18.2549 5.97969 19.1803C5.2851 19.5176 4.44735 19.3733 3.89713 18.8231L2.31795 17.2334L5.62815 13.9431L7.53861 15.8291L8.04975 15.6015C8.1328 15.5645 10.1097 14.67 12.3354 12.4442C14.5626 10.217 15.4386 8.25688 15.4747 8.17448L15.6964 7.67019L13.8112 5.72331L17.2248 2.31533L18.8164 3.90136C19.3679 4.45363 19.5119 5.29096 19.1747 5.98519Z" fill="black"/>
</svg>
