<svg width="23" height="37" viewBox="0 0 23 37" fill="none" xmlns="http://www.w3.org/2000/svg">
<path d="M19.7375 15.4538C19.1938 15.548 18.6531 15.6293 18.1228 15.7001L17.6502 10.7654C20.8206 8.73841 21.7612 5.18022 22.0129 2.74348C22.0913 1.9587 21.7747 1.18605 21.1683 0.682054C20.4354 0.0680002 19.4486 -0.148443 18.5261 0.102428C16.2443 0.693342 13.9032 1.02436 11.5471 1.08954C9.19111 1.02436 6.84974 0.693342 4.56821 0.102428C3.64543 -0.148443 2.65804 0.0691289 1.92602 0.684594C1.31959 1.18775 1.0024 1.95926 1.07972 2.74348C1.33116 5.17966 2.27115 8.73728 5.44047 10.7643L4.97146 15.701C4.44122 15.6293 3.90054 15.548 3.35675 15.4543C2.42015 15.285 1.46972 15.6685 0.913231 16.4406C0.373394 17.1766 0.303127 18.1569 0.732062 18.9626C1.50781 20.2813 2.66989 21.3296 4.06082 21.9665L1.31395 35.1202C1.14491 35.9346 1.64496 36.7383 2.45006 36.9471C3.25516 37.1559 4.08255 36.6962 4.33088 35.9024L6.53397 28.9776H16.5609L18.7634 35.8999C19.0098 36.6971 19.8394 37.1596 20.6471 36.9493C21.4544 36.7394 21.9539 35.9312 21.7803 35.1151L19.036 21.9634C20.4269 21.3268 21.589 20.2782 22.3648 18.9595C22.7937 18.1538 22.7232 17.1737 22.1836 16.4375C21.6257 15.6657 20.6741 15.283 19.7375 15.4538ZM16.9018 15.85C16.4779 15.8965 16.069 15.9375 15.6751 15.9733L15.2823 11.8344C15.69 11.715 16.0893 11.5691 16.4782 11.3981L16.9018 15.85ZM11.5471 12.333C12.3926 12.3361 13.2366 12.2639 14.0691 12.1174L14.4433 16.0659C12.7326 16.1793 11.5686 16.183 11.546 16.183C11.5232 16.183 10.3605 16.1793 8.64845 16.0659L9.02264 12.1174C9.85624 12.2641 10.7008 12.3364 11.5471 12.333ZM2.30642 2.61706C2.27341 2.23468 2.43284 1.86106 2.73169 1.62035C3.03025 1.36948 3.40839 1.23346 3.7981 1.23685C3.95331 1.23798 4.10767 1.25858 4.25751 1.29837C6.63979 1.91976 9.08585 2.26347 11.5471 2.32245C14.0084 2.26347 16.4545 1.91976 18.8368 1.29837C19.369 1.15078 19.9396 1.27212 20.3657 1.62345C20.6634 1.86445 20.8217 2.23779 20.7879 2.6196C20.3886 6.48735 18.46 11.1001 11.5471 11.1001C9.74421 11.1622 7.95764 10.7411 6.37255 9.88017C6.36381 9.87593 6.35703 9.86916 6.34857 9.86493C3.56444 8.23187 2.57874 5.2536 2.30642 2.61706ZM6.61863 11.3955C7.00721 11.5666 7.40679 11.7125 7.81456 11.8318L7.42175 15.9702C7.02753 15.9358 6.61863 15.8946 6.19505 15.8469L6.61863 11.3955ZM3.1547 35.5313C3.1118 35.667 2.98538 35.7593 2.84259 35.7588C2.74523 35.7593 2.65296 35.7156 2.59172 35.6397C2.52794 35.564 2.50198 35.4636 2.52089 35.3665L5.20794 22.4863C5.82594 22.7366 6.45665 22.9545 7.09751 23.139L3.1547 35.5313ZM14.7997 23.4435L15.3833 25.2789H7.711L8.29458 23.4435C10.4392 23.8973 12.655 23.8973 14.7997 23.4435ZM6.92368 27.7447L7.31565 26.5118H15.7761L16.1681 27.7447H6.92368ZM20.5723 35.3617C20.5926 35.4602 20.5669 35.5626 20.5026 35.6397C20.4413 35.7156 20.3491 35.7593 20.2517 35.7588C20.1081 35.7593 19.9811 35.6659 19.939 35.5288L15.9968 23.1379C16.6376 22.9534 17.2683 22.7355 17.8863 22.4849L20.5723 35.3617ZM21.2724 18.3818C20.4594 19.9181 18.4589 21.1713 15.4894 22.0066C12.9113 22.7321 10.183 22.7321 7.60489 22.0066C4.63537 21.1713 2.6349 19.9181 1.82189 18.3818C1.6111 17.9927 1.64581 17.5163 1.91135 17.1619C2.191 16.7713 2.67215 16.5789 3.14426 16.6686C5.92189 17.1323 8.73113 17.382 11.5471 17.4159C14.3626 17.382 17.171 17.132 19.9483 16.6686C20.4202 16.5789 20.9013 16.7713 21.1812 17.1619C21.4471 17.5158 21.4826 17.9921 21.2724 18.3818Z" fill="black"/>
</svg>
