<svg width="53" height="38" viewBox="0 0 53 38" fill="none" xmlns="http://www.w3.org/2000/svg">
<path d="M49.603 10.2578H47.8877V4.27408C47.8849 1.91479 45.9666 0.00277815 43.5994 0H29.8771C28.522 0.00373982 27.2491 0.647951 26.4465 1.73613C25.6438 0.647951 24.371 0.00373982 23.0159 0H9.29352C6.92641 0.00277815 5.00807 1.91479 5.00528 4.27408V10.2578H3.28999C1.86897 10.2578 0.717041 11.4059 0.717041 12.8223V31.6282C0.717041 32.1003 1.10105 32.483 1.57469 32.483H7.57823V35.9023C7.57823 36.3744 7.96224 36.7571 8.43587 36.7571H11.8665C12.3401 36.7571 12.7241 36.3744 12.7241 35.9023V32.483H40.1689V36.7571C40.1689 37.2292 40.5529 37.6119 41.0265 37.6119H44.4571C44.9307 37.6119 45.3147 37.2292 45.3147 36.7571V32.483H51.3183C51.7919 32.483 52.1759 32.1003 52.1759 31.6282V12.8223C52.1759 11.4059 51.024 10.2578 49.603 10.2578ZM27.3041 4.27408C27.3041 2.85776 28.4561 1.70963 29.8771 1.70963H43.5994C45.0205 1.70963 46.1724 2.85776 46.1724 4.27408V10.2578C44.7514 10.2578 43.5994 11.4059 43.5994 12.8223V17.0963H27.3041V4.27408ZM6.72058 4.27408C6.72058 2.85776 7.87251 1.70963 9.29352 1.70963H23.0159C24.4369 1.70963 25.5888 2.85776 25.5888 4.27408V17.0963H9.29352V12.8223C9.29352 11.4059 8.14159 10.2578 6.72058 10.2578V4.27408ZM7.5808 30.7734H2.43234V12.8223C2.43234 12.3502 2.81635 11.9674 3.28999 11.9674H6.72058C7.19421 11.9674 7.57823 12.3502 7.57823 12.8223V17.2425C7.54907 17.2528 7.52334 17.2682 7.49246 17.2793C7.44443 17.2981 7.39898 17.3203 7.35266 17.3417C7.25768 17.3859 7.16548 17.4359 7.0765 17.4913C7.03448 17.5169 6.99074 17.5426 6.95214 17.5708C6.85083 17.6425 6.75488 17.7213 6.66483 17.8067C6.64596 17.8246 6.62452 17.84 6.60651 17.858C6.50177 17.9637 6.40625 18.0781 6.32091 18.1999C6.29776 18.2341 6.27803 18.2717 6.25573 18.3068C6.19688 18.3998 6.14424 18.4966 6.09793 18.5965C6.07648 18.6436 6.05762 18.6906 6.03875 18.7384C6.00015 18.8392 5.9681 18.9422 5.94269 19.047C5.93068 19.094 5.91696 19.1393 5.90839 19.1872C5.87826 19.3433 5.86304 19.5019 5.86293 19.6608V23.0801C5.864 23.2382 5.88008 23.3959 5.91096 23.5511C5.91953 23.5989 5.93326 23.6442 5.94441 23.6912C5.97046 23.796 6.00283 23.899 6.04132 23.9998C6.06019 24.0477 6.07906 24.0947 6.1005 24.1417C6.14681 24.2416 6.19945 24.3385 6.25831 24.4315C6.2806 24.4666 6.30033 24.5042 6.32349 24.5384C6.40872 24.6602 6.50434 24.7746 6.60908 24.8803C6.62709 24.8982 6.64854 24.9136 6.6674 24.9316C6.75746 25.017 6.85341 25.0958 6.95472 25.1675C6.99503 25.1957 7.04048 25.2214 7.07907 25.247C7.16838 25.3025 7.2609 25.3528 7.3561 25.3975C7.40155 25.4188 7.44701 25.4402 7.49503 25.4582C7.52334 25.4701 7.54907 25.4855 7.5808 25.4958V30.7734ZM7.57823 23.0801V19.6608C7.57823 19.1887 7.96224 18.806 8.43587 18.806H25.5888V23.9349H8.43587C7.96224 23.9349 7.57823 23.5521 7.57823 23.0801ZM11.0088 35.0475H9.29352V32.483H11.0088V35.0475ZM43.5994 35.9023H41.8842V32.483H43.5994V35.9023ZM43.5994 30.7734H9.29352V25.6445H43.5994V30.7734ZM44.4571 23.9349H27.3041V18.806H44.4571C44.9307 18.806 45.3147 19.1887 45.3147 19.6608V23.0801C45.3147 23.5521 44.9307 23.9349 44.4571 23.9349ZM45.3147 30.7734V25.4983C45.3439 25.4881 45.3696 25.4727 45.4005 25.4616C45.4485 25.4428 45.494 25.4214 45.5403 25.3992C45.6353 25.3549 45.7275 25.3049 45.8165 25.2496C45.8585 25.2239 45.9022 25.1983 45.9408 25.1701C46.0421 25.0984 46.1381 25.0195 46.2281 24.9342C46.247 24.9162 46.2684 24.9008 46.2865 24.8829C46.3912 24.7772 46.4868 24.6627 46.5721 24.5409C46.5952 24.5067 46.6149 24.4691 46.6372 24.4341C46.696 24.341 46.7487 24.2442 46.795 24.1443C46.8165 24.0973 46.8354 24.0503 46.8542 24.0015C46.8931 23.9012 46.9253 23.7984 46.9503 23.6938C46.9623 23.6468 46.976 23.6015 46.9846 23.5536C47.0147 23.3975 47.0299 23.2389 47.03 23.0801V19.6608C47.029 19.5026 47.0129 19.3449 46.982 19.1898C46.9734 19.1419 46.9597 19.0966 46.9477 19.0496C46.9227 18.945 46.8906 18.8422 46.8517 18.7419C46.8328 18.6931 46.8139 18.6453 46.7925 18.5982C46.7459 18.4988 46.6933 18.4023 46.6347 18.3093C46.6124 18.2743 46.5926 18.2367 46.5695 18.2025C46.4843 18.0807 46.3886 17.9662 46.2839 17.8605C46.2659 17.8426 46.2444 17.8272 46.2256 17.8093C46.1355 17.7239 46.0396 17.645 45.9383 17.5733C45.8979 17.5443 45.8525 17.5195 45.8139 17.4938C45.7249 17.4385 45.6327 17.3885 45.5377 17.3442C45.4914 17.3229 45.446 17.3006 45.3979 17.2818C45.3696 17.2707 45.3439 17.2553 45.3122 17.2451V12.8223C45.3122 12.3502 45.6962 11.9674 46.1698 11.9674H49.6004C50.0741 11.9674 50.4581 12.3502 50.4581 12.8223L50.4606 30.7734H45.3147Z" fill="black"/>
</svg>
