<svg width="37" height="37" viewBox="0 0 37 37" fill="none" xmlns="http://www.w3.org/2000/svg">
<path d="M37 9.25C37 4.06313 28.8734 0 18.5 0C8.12657 0 0 4.06313 0 9.25C0 11.9208 2.15833 14.2917 5.66593 15.9656L2.84275 35.3195C2.79819 35.6288 2.9915 35.9223 3.2932 36.0033C3.59491 36.0843 3.90957 35.9272 4.0255 35.6372L11.1419 17.7638C12.1244 17.9716 13.1542 18.1336 14.2204 18.257L15.4209 28.4377C15.4579 28.7479 15.7208 28.9815 16.0333 28.9815C16.3459 28.9815 16.6087 28.7479 16.6458 28.4377L17.8132 18.4907C17.9556 18.4931 18.0995 18.4952 18.2447 18.4964L20.3575 36.455C20.3943 36.7651 20.6574 36.9988 20.9697 36.9988C21.2822 36.9988 21.5451 36.7651 21.5821 36.455L23.7405 18.1351C24.6709 18.0023 25.5694 17.8358 26.4296 17.6367L33.5912 35.6372C33.7071 35.9272 34.0218 36.0843 34.3235 36.0033C34.6252 35.9223 34.8185 35.6288 34.7739 35.3195L31.9107 15.678C35.0759 14.0256 37 11.7715 37 9.25ZM4.81982 30.3073L6.83693 16.4793C7.84443 16.8794 8.87723 17.2134 9.92839 17.4789L4.81982 30.3073ZM16.0333 23.0886L15.4784 18.3805C15.8415 18.4094 16.2074 18.4347 16.5777 18.4524L16.0333 23.0886ZM20.9667 31.1052L19.4822 18.4877C20.5072 18.4618 21.5056 18.3946 22.4755 18.2922L20.9667 31.1052ZM32.7975 30.3037L27.6305 17.3284C28.6931 17.0363 29.7343 16.6702 30.7457 16.2327L32.7975 30.3037ZM18.5 17.2667C9.1401 17.2667 1.23333 13.5956 1.23333 9.25C1.23333 4.90443 9.1401 1.23333 18.5 1.23333C27.8599 1.23333 35.7667 4.90443 35.7667 9.25C35.7667 13.5956 27.8599 17.2667 18.5 17.2667Z" fill="black"/>
</svg>
