<svg width="37" height="33" viewBox="0 0 37 33" fill="none" xmlns="http://www.w3.org/2000/svg">
<path d="M4.64234 7.60021C1.96629 7.81321 -0.230905 10.1574 0.019483 12.9108C0.234395 15.2743 2.32379 17.2137 4.76918 16.9541C6.81968 16.7366 8.50185 14.9004 8.22968 12.7622C8.00847 11.0252 6.42177 9.59756 4.5892 9.88918C3.16645 10.1156 1.98999 11.4607 2.31461 12.9907C2.43227 13.545 2.7506 14.0261 3.20385 14.3523C3.65709 14.6786 4.28895 14.8386 4.90451 14.6426C5.30776 14.5142 5.62965 14.2566 5.84785 13.8863C6.06605 13.516 6.13686 12.9389 5.84511 12.4807C5.60992 12.1112 5.39405 12.038 5.05532 11.981C4.88602 11.9525 4.64919 11.942 4.39716 12.106C4.14513 12.2699 4.01158 12.6089 4.01158 12.8486C4.00925 13.0316 4.08007 13.2079 4.20855 13.3382C4.14129 13.3189 4.07459 13.2917 4.00391 13.2408C3.83886 13.1219 3.69668 12.9062 3.65421 12.7063C3.50916 12.0225 4.09664 11.3548 4.80411 11.2421C5.81059 11.0818 6.74146 11.9202 6.87077 12.9349C7.03938 14.2596 5.94715 15.4514 4.6244 15.5917C2.98414 15.7658 1.53195 14.4178 1.3836 12.7864C1.20581 10.8322 2.81032 9.12007 4.75096 8.9657C4.76822 8.96433 4.78562 8.96351 4.80288 8.96255H32.1976C32.2149 8.96392 32.2321 8.96447 32.2492 8.9657C34.1899 9.12007 35.7944 10.8322 35.6166 12.7867C35.4683 14.4182 34.0161 15.766 32.3758 15.5919C31.0529 15.4515 29.9607 14.2597 30.1294 12.9352C30.2586 11.9204 31.1895 11.0821 32.1961 11.2423C32.9036 11.3549 33.491 12.0227 33.3459 12.7066C33.3034 12.9064 33.1612 13.1223 32.9962 13.2411C32.9255 13.2919 32.8592 13.3191 32.7921 13.3384C32.9203 13.208 32.991 13.0318 32.9885 12.8489C32.9885 12.6092 32.8552 12.2702 32.6033 12.1062C32.3513 11.9423 32.1146 11.9528 31.9452 11.9813C31.6064 12.0383 31.3904 12.1116 31.1551 12.481C30.8635 12.939 30.9344 13.5162 31.1526 13.8866C31.3708 14.257 31.6927 14.5146 32.096 14.6428C32.7115 14.8387 33.3431 14.6789 33.7964 14.3526C34.2496 14.0263 34.5679 13.5453 34.6856 12.9909C35.0102 11.4611 33.8338 10.116 32.4111 9.88945C30.5786 9.59784 28.9917 11.0255 28.7707 12.7625C28.4984 14.9006 30.1809 16.7368 32.2314 16.9544C34.6767 17.2138 36.7659 15.2746 36.9809 12.911C37.2312 10.1575 35.034 7.81321 32.358 7.60035C32.3024 7.59186 32.251 7.59528 32.1977 7.59419H4.80301C4.74973 7.5909 4.69343 7.59706 4.64248 7.60062L4.64234 7.60021ZM2.06327 0.748108C1.68508 0.748108 1.3784 1.05479 1.3784 1.43298V2.80271C1.3784 2.98434 1.45058 3.15857 1.57906 3.28691L4.31854 6.02639C4.44702 6.15487 4.62111 6.22705 4.80274 6.22705H32.1975C32.3791 6.22705 32.5533 6.15487 32.6817 6.02639L35.4211 3.28691C35.5496 3.15843 35.6218 2.98434 35.6218 2.80271V1.43298C35.6218 1.05479 35.3151 0.748108 34.9369 0.748108C34.9369 0.748108 2.06327 0.748108 2.06327 0.748108ZM2.74813 2.11784H34.2521V2.5189L31.9137 4.85732H5.08627L2.74813 2.5189V2.11784ZM10.2817 11.706C9.9035 11.706 9.59682 12.0127 9.59682 12.3909V31.5672C9.59695 31.9455 9.90364 32.252 10.282 32.2519C10.4172 32.2519 10.5492 32.2119 10.6616 32.137L14.5573 29.5396C14.7444 29.4149 14.8584 29.2063 14.8624 28.9815L15.0756 16.5116C15.0756 16.5077 15.0756 16.5039 15.0756 16.5001C15.0756 16.0508 16.4533 16.0381 16.4454 16.4877C16.4454 16.4919 16.4454 16.496 16.4454 16.5001V27.458C16.4455 27.8363 16.7522 28.1428 17.1305 28.1427C17.2657 28.1427 17.3977 28.1027 17.5102 28.0278L21.6194 25.2883C21.8099 25.1613 21.9243 24.9475 21.9244 24.7185V16.5001C21.9244 16.0427 23.2942 16.0427 23.2942 16.5001V23.3488C23.2943 23.7271 23.6011 24.0336 23.9795 24.0333C24.0856 24.0333 24.1904 24.0086 24.2855 23.961L27.0249 22.5913C27.2568 22.4753 27.4034 22.2383 27.4035 21.9789V12.3907C27.4035 12.0125 27.0968 11.7059 26.7187 11.7059H10.2818H10.2817V11.706ZM10.9666 13.0757H26.0337V21.5555L24.6639 22.2404V16.5001C24.6639 14.217 20.5547 14.217 20.5547 16.5001V24.3519L17.8152 26.1784V16.5001V16.5121C17.8559 14.2214 13.7063 14.2089 13.7063 16.5001V16.4883L13.4992 28.5992L10.9668 30.2876V13.0757H10.9666Z" fill="black"/>
</svg>
