<svg width="46" height="32" viewBox="0 0 46 32" fill="none" xmlns="http://www.w3.org/2000/svg">
<path d="M45.873 21.4361C45.8727 21.4221 45.872 21.4081 45.8709 21.3941C45.8699 21.385 45.8688 21.3759 45.8678 21.3668C45.866 21.3546 45.8643 21.3423 45.8618 21.3297C45.8601 21.3189 45.8576 21.3084 45.8552 21.2979C45.8527 21.2877 45.8503 21.2772 45.8471 21.2671C45.8436 21.2548 45.8394 21.2426 45.8352 21.2303C45.8324 21.2223 45.8296 21.2139 45.8261 21.2058C45.8209 21.1922 45.8149 21.1789 45.8086 21.1659C45.8065 21.1614 45.8051 21.1565 45.8027 21.1519L42.8341 15.2147C42.7203 14.9872 42.4876 14.8434 42.2331 14.8434H38.4522V11.7344H42.2331C42.6045 11.7344 42.9051 11.4334 42.9051 11.0624V0.671978C42.9051 0.30099 42.6045 0 42.2331 0H11.0113C10.64 0 10.3394 0.30099 10.3394 0.671978C10.3394 1.04297 10.64 1.34396 11.0113 1.34396H41.5612V10.3901H37.783C37.782 10.3901 37.7813 10.3901 37.7802 10.3901H34.8116C34.8106 10.3901 34.8099 10.3901 34.8088 10.3901H11.0649C11.0638 10.3901 11.0631 10.3901 11.0621 10.3901H8.09349C8.09244 10.3901 8.09174 10.3901 8.09069 10.3901H4.31256V1.34396H8.23383C8.60517 1.34396 8.90581 1.04297 8.90581 0.671978C8.90581 0.30099 8.60517 0 8.23383 0H3.64058C3.26924 0 2.9686 0.30099 2.9686 0.671978V11.0621C2.9686 11.4334 3.26924 11.7341 3.64058 11.7341H7.42151V14.843H3.64058C3.38579 14.843 3.1534 14.9869 3.03965 15.2147L0.0710477 21.1519C0.0685978 21.1565 0.0668479 21.161 0.0647479 21.1656C0.0587981 21.1789 0.0528483 21.1922 0.0472485 21.2055C0.0440986 21.2139 0.0412987 21.2219 0.0384988 21.23C0.0342989 21.2422 0.0300991 21.2545 0.0265991 21.2671C0.0237992 21.2772 0.0209993 21.2874 0.0188994 21.2975C0.0160995 21.3084 0.0136496 21.3189 0.0118996 21.3297C0.00944972 21.342 0.00769975 21.3542 0.0062998 21.3665C0.00489984 21.3756 0.00384988 21.385 0.00314989 21.3941C0.00174994 21.4081 0.00139995 21.4221 0.00104997 21.4358C0.000699978 21.4417 0 21.447 0 21.4522V24.4212C0 24.7922 0.30064 25.0931 0.671978 25.0931H5.93721V29.686H5.12489C4.75355 29.686 4.45291 29.987 4.45291 30.358C4.45291 30.729 4.75355 31.03 5.12489 31.03H6.60499H6.60919H9.57779H9.58234H11.0624C11.4334 31.03 11.7344 30.729 11.7344 30.358C11.7344 29.987 11.4334 29.686 11.0624 29.686H10.2498V25.0931H35.624V29.686H34.8116C34.4403 29.686 34.1396 29.987 34.1396 30.358C34.1396 30.729 34.4403 31.03 34.8116 31.03H36.2917H36.2959H39.2645H39.2691H40.7488C41.1202 31.03 41.4208 30.729 41.4208 30.358C41.4208 29.987 41.1202 29.686 40.7488 29.686H39.9365V25.0931H45.2017C45.5731 25.0931 45.8737 24.7922 45.8737 24.4212V21.4522C45.8737 21.447 45.873 21.4417 45.873 21.4361ZM37.1083 14.8434H35.4836V11.7341H37.1083V14.8434ZM11.7341 14.843V11.7341H34.1396V14.8434L11.7341 14.843ZM8.76547 11.7341H10.3901V14.843H8.76547V11.7341ZM4.05602 16.187H8.09279H8.09349H8.09419H11.0617H11.0621H11.0628L41.8177 16.1873L44.1143 20.7802H1.75939L4.05602 16.187ZM8.90581 29.686H7.28117V25.0931H8.90581V29.686ZM38.5926 29.686H36.9679V25.0931H38.5926V29.686ZM44.5298 23.7492H39.2673C39.2663 23.7492 39.2656 23.7488 39.2645 23.7488C39.2638 23.7488 39.2628 23.7492 39.2621 23.7492H36.2984C36.2977 23.7492 36.2966 23.7488 36.2959 23.7488C36.2949 23.7488 36.2942 23.7492 36.2931 23.7492H9.58059C9.57954 23.7492 9.57884 23.7488 9.57779 23.7488C9.57709 23.7488 9.57604 23.7492 9.57534 23.7492H6.61164C6.61094 23.7492 6.60989 23.7488 6.60919 23.7488C6.60814 23.7488 6.60744 23.7492 6.60639 23.7492H1.34396V22.1242H44.5298V23.7492Z" fill="black"/>
</svg>
