<svg width="28" height="38" viewBox="0 0 28 38" fill="none" xmlns="http://www.w3.org/2000/svg">
<path d="M27.5643 15.84L23.571 0.413217C23.5079 0.169878 23.288 0 23.0358 0H5.22615C4.97395 0 4.7537 0.169878 4.69065 0.413217L3.62625 4.52559C3.54996 4.82029 3.72789 5.12074 4.02357 5.19678C4.31953 5.27311 4.62068 5.09548 4.69669 4.80078L5.08393 3.30574H23.178L25.7453 13.2229H2.51666L4.10792 7.07606C4.18422 6.78135 4.00629 6.48091 3.71061 6.40486C3.41464 6.32882 3.11349 6.50616 3.03748 6.80058L0.697379 15.84C0.654769 16.005 0.691045 16.1806 0.795555 16.3152C0.900353 16.4498 1.06187 16.5287 1.2326 16.5287H6.41924V19.9291C5.77577 20.1567 5.31339 20.769 5.31339 21.4876C5.31339 22.3987 6.05734 23.1404 6.97173 23.1404C7.88612 23.1404 8.63007 22.3987 8.63007 21.4876C8.63007 20.7693 8.16798 20.157 7.5248 19.9294V16.5287H10.84C10.0264 19.6175 9.79005 22.7528 10.1396 25.8594C10.1712 26.1409 10.4105 26.3489 10.6883 26.3489C10.7088 26.3489 10.7295 26.3478 10.7505 26.3455C11.054 26.3116 11.2722 26.039 11.2382 25.7365C10.8933 22.6718 11.1461 19.5764 11.9856 16.5287H15.9348C17.1308 20.8689 17.1291 25.2636 15.9297 29.6047H11.9902C11.8474 29.0888 11.7202 28.5668 11.6111 28.048C11.5483 27.7504 11.2552 27.5593 10.9564 27.6221C10.6575 27.6844 10.4663 27.9765 10.5288 28.2744C10.6221 28.7174 10.7292 29.1625 10.8464 29.6047H10.6667C7.92355 29.6047 5.6917 31.8292 5.6917 34.5633V36.7671C5.6917 37.2329 6.07202 37.6119 6.53929 37.6119H21.7223C22.1896 37.6119 22.5699 37.2329 22.5699 36.7671V34.5633C22.5699 31.8292 20.3381 29.6047 17.5949 29.6047H17.0735C18.2214 25.2622 18.2234 20.8706 17.0787 16.5287H20.7368V19.9294C20.0937 20.157 19.6316 20.7693 19.6316 21.4873C19.6316 22.3987 20.3758 23.1402 21.2899 23.1402C22.2043 23.1402 22.9483 22.3987 22.9483 21.4873C22.9483 20.769 22.4862 20.1567 21.8424 19.9291V16.5287H22.9189C23.2241 16.5287 23.4717 16.2822 23.4717 15.9777C23.4717 15.6733 23.2241 15.4268 22.9189 15.4268H1.94632L2.23135 14.3246H26.0303L26.3156 15.4268H25.2774C24.9719 15.4268 24.7246 15.6733 24.7246 15.9777C24.7246 16.2822 24.9719 16.5287 25.2774 16.5287H27.029C27.2001 16.5287 27.3613 16.4498 27.4661 16.3152C27.5709 16.1806 27.6072 16.005 27.5643 15.84ZM6.97173 22.0385C6.66684 22.0385 6.41895 21.7912 6.41895 21.4876C6.41895 21.1837 6.66684 20.9366 6.97173 20.9366C7.27662 20.9366 7.52451 21.1837 7.52451 21.4876C7.52451 21.7912 7.27662 22.0385 6.97173 22.0385ZM21.4644 34.5633V36.51H6.79726V34.5633C6.79726 32.4367 8.53305 30.7066 10.6667 30.7066H17.5949C19.7286 30.7066 21.4644 32.4367 21.4644 34.5633ZM21.2899 22.0385C20.9853 22.0385 20.7371 21.7912 20.7371 21.4876C20.7371 21.1837 20.9853 20.9366 21.2899 20.9366C21.5948 20.9366 21.8427 21.1837 21.8427 21.4876C21.8427 21.7912 21.5948 22.0385 21.2899 22.0385ZM5.36895 2.20354L5.65427 1.10191H22.6074L22.8927 2.20354H5.36895Z" fill="black"/>
</svg>
