<svg width="35" height="37" viewBox="0 0 35 37" fill="none" xmlns="http://www.w3.org/2000/svg">
<path d="M32.4762 7.41679L17.833 0.0655511C17.6594 -0.0216737 17.4549 -0.0218905 17.2811 0.0649007L2.53227 7.41801C1.4037 7.97547 0.691086 9.12696 0.695855 10.3858V28.2854C0.695855 28.519 0.827812 28.7325 1.03673 28.837L5.08362 30.8617C5.10414 30.8701 5.12517 30.8774 5.14649 30.8836C5.19837 30.9066 5.25431 30.9189 5.31104 30.9199C5.32758 30.9213 5.34341 30.9266 5.36003 30.9266L5.36842 30.9246C5.45268 30.9226 5.53557 30.903 5.61181 30.8671C5.61939 30.8637 5.62771 30.8653 5.63522 30.8615L9.6821 28.8369C9.89095 28.7324 10.0229 28.5188 10.023 28.2853V25.2341L12.8365 26.6419V34.3586C12.8365 34.5922 12.9685 34.8057 13.1774 34.9102L17.2243 36.9349C17.3979 37.0216 17.6022 37.0216 17.7759 36.9349L21.8228 34.9102C22.0317 34.8057 22.1636 34.5922 22.1636 34.3586V26.6419L24.9772 25.2342V28.2854C24.9772 28.519 25.1091 28.7325 25.318 28.837L29.3649 30.8617C29.3725 30.8654 29.3807 30.8638 29.3883 30.8672C29.4646 30.9031 29.5475 30.9227 29.6317 30.9248L29.6401 30.9268C29.6567 30.9268 29.6725 30.9214 29.689 30.9201C29.7224 30.9183 29.7557 30.9137 29.7882 30.9065C29.831 30.8916 29.8737 30.8767 29.9165 30.8617L33.9634 28.8371C34.1723 28.7326 34.3042 28.519 34.3043 28.2855V10.3803C34.3086 9.12508 33.5999 7.97612 32.4762 7.41679ZM8.78955 24.9112V27.9042L5.97603 29.3119V23.2093L8.853 24.6488C8.81238 24.7304 8.79071 24.82 8.78955 24.9112ZM17.1917 35.5395L14.0698 33.9775V26.2607C14.0698 26.0272 13.9378 25.8136 13.7289 25.7091L5.63515 21.6597C5.44393 21.5643 5.21702 21.5745 5.0352 21.6869C4.85345 21.7993 4.74274 21.9976 4.74267 22.2113V29.312L1.92914 27.9041V16.4611L17.1917 24.097V35.5395ZM17.1917 18.8185V22.7178L1.92914 15.0818V10.3858C1.92611 9.59509 2.37358 8.87164 3.08236 8.5213L17.5554 1.30614L31.9228 8.51884H31.923C32.2303 8.67392 32.4941 8.90293 32.6907 9.18535L18.8534 16.1284C17.8321 16.6352 17.1876 17.6784 17.1917 18.8185ZM29.024 29.3119L26.2104 27.9042V24.6171L29.024 23.2094V29.3119ZM33.0708 27.9041L30.2573 29.3121V22.2114C30.2572 21.9977 30.1465 21.7993 29.9648 21.687C29.783 21.5746 29.5561 21.5643 29.3648 21.6598L21.2711 25.7091C21.0622 25.8136 20.9303 26.0271 20.9302 26.2607V33.9774L17.8083 35.5394V24.0969L33.0708 16.4611V27.9041ZM33.0708 15.0818L17.8083 22.7178V18.8185C17.8049 17.9121 18.3174 17.0826 19.1296 16.68L32.9667 9.73717C33.0348 9.94479 33.0699 10.1617 33.0708 10.3803V15.0818Z" fill="black"/>
</svg>
