<svg width="16" height="16" viewBox="0 0 16 16" fill="none" xmlns="http://www.w3.org/2000/svg">
<path d="M13.6568 2.34313C12.1458 0.832156 10.1369 0 8 0C5.86309 0 3.85409 0.832156 2.34313 2.34313C0.832125 3.85413 0 5.86312 0 8C0 10.1369 0.832125 12.1458 2.34313 13.6568C3.85413 15.1678 5.86309 16 8 16C10.1369 16 12.1458 15.1678 13.6568 13.6568C15.1678 12.1458 16 10.1369 16 8C16 5.86312 15.1678 3.85416 13.6568 2.34313ZM8 15.0625C4.10572 15.0625 0.9375 11.8943 0.9375 8C0.9375 4.10572 4.10572 0.9375 8 0.9375C11.8943 0.9375 15.0625 4.10572 15.0625 8C15.0625 11.8943 11.8943 15.0625 8 15.0625Z" fill="white"/>
</svg>
